# AST/ASF file generated using VICON BodyLanguage
# -----------------------------------------------
:version 1.10
:name VICON
:units
  mass 1.0
  length 0.45
  angle deg
:documentation
   .ast/.asf automatically generated from VICON data using
   VICON BodyBuilder and BodyLanguage model FoxedUp or BRILLIANT.MOD
:root
   order TX TY TZ RX RY RZ
   axis XYZ
   position 0 0 0  
   orientation 0 0 0 
:bonedata
  begin
     id 1 
     name lhipjoint
     direction 0.588788 -0.725889 0.355548 
     length 2.37778 
     axis 0 0 0  XYZ
  end
  begin
     id 2 
     name lfemur
     direction 0.34202 -0.939693 0  
     length 6.86393  
     axis 0 0 20  XYZ
    dof rx ry rz
    limits (-160.0 20.0)
           (-70.0 70.0)
           (-60.0 70.0)
  end
  begin
     id 3 
     name ltibia
     direction 0.34202 -0.939693 0   
     length 7.32851   
     axis 0 0 20   XYZ
    dof rx
    limits (-10.0 170.0)
  end
  begin
     id 4 
     name lfoot
     direction 0.0626533 -0.172138 0.983078   
     length 1.98929   
     axis -90 7.62852e-016 20   XYZ
    dof rx rz
    limits (-45.0 90.0)
           (-70.0 20.0)
  end
  begin
     id 5 
     name ltoes
     direction 1.53647e-011 -4.21734e-011 1   
     length 1.00479   
     axis -90 7.62852e-016 20   XYZ
    dof rx
    limits (-90.0 20.0)
  end
  begin
     id 6 
     name rhipjoint
     direction -0.59141 -0.724168 0.354705   
     length 2.38343  
     axis 0 0 0  XYZ 
  end
  begin
     id 7 
     name rfemur
     direction -0.34202 -0.939693 0   
     length 6.95589   
     axis 0 0 -20   XYZ
    dof rx ry rz
    limits (-160.0 20.0)
           (-70.0 70.0)
           (-70.0 60.0)
  end
  begin
     id 8 
     name rtibia
     direction -0.34202 -0.939693 0   
     length 7.32327   
     axis 0 0 -20   XYZ
    dof rx
    limits (-10.0 170.0)
 end
 begin
     id 9 
     name rfoot
     direction -0.0660461 -0.18146 0.981178   
     length 1.85272  
     axis -90 -7.62852e-016 -20   XYZ
    dof rx rz
    limits (-45.0 90.0)
           (-20.0 70.0)
  end
  begin
     id 10 
     name rtoes
     direction -1.53586e-011 -4.21988e-011 1   
     length 0.93746   
     axis -90 -7.62852e-016 -20   XYZ
    dof rx
    limits (-90.0 20.0)
  end
  begin
     id 11 
     name lowerback
     direction -0.0107982 0.991059 0.13299   
     length 1.98691   
     axis 0 0 0   XYZ
    dof rx ry rz
    limits (-20.0 45.0)
           (-30.0 30.0)
           (-30.0 30.0)
  end
  begin
     id 12 
     name upperback
     direction 0.0076296 0.999916 0.0104576   
     length 1.99501   
     axis 0 0 0   XYZ
    dof rx ry rz
    limits (-20.0 45.0)
           (-30.0 30.0)
           (-30.0 30.0)
  end
  begin
     id 13 
     name thorax
     direction 0.01176 0.998615 -0.0512909   
     length 2.03144   
     axis 0 0 0   XYZ
    dof rx ry rz
    limits (-20.0 45.0)
           (-30.0 30.0)
           (-30.0 30.0)
  end
  begin
     id 14 
     name lowerneck
     direction -0.0171909 0.999644 0.0204011   
     length 1.71818   
     axis 0 0 0   XYZ
    dof rx ry rz
    limits (-20.0 45.0)
           (-30.0 30.0)
           (-30.0 30.0)
  end
  begin
     id 15 
     name upperneck
     direction 0.0250902 0.997482 -0.0663316   
     length 1.66199   
     axis 0 0 0   XYZ
    dof rx ry rz
    limits (-20.0 45.0)
           (-30.0 30.0)
           (-30.0 30.0)
  end
  begin
     id 16
     name head
     direction 0.00881535 0.99956 -0.0283365  
     length 1.81545  
     axis 0 0 0   XYZ
    dof rx ry rz
    limits (-20.0 45.0)
           (-30.0 30.0)
           (-30.0 30.0)
  end
  begin
     id 17 
     name lclavicle
     direction 0.840411 0.486876 -0.238035  
     length 3.30409  
     axis 0 0 0   XYZ
    dof ry rz
    limits (-20.0 10.0)
           (0.0 20.0)
  end
  begin
     id 18 
     name lhumerus
     direction 1 -4.48977e-011 -5.16239e-027   
     length 4.62672   
     axis 180 -30 -90   XYZ
    dof rx ry rz
    limits (-60.0 90.0)
           (-90.0 90.0)
           (-90.0 90.0)
  end
  begin
     id 19
     name lradius
     direction 1 -4.48977e-011 -8.71171e-027   
     length 3.11018   
     axis 180 -30 -90   XYZ
    dof rx
    limits (-10.0 170.0)
  end
  begin
     id 20
     name lwrist
     direction 1 -4.48912e-011 -1.03764e-026   
     length 1.55509   
     axis 9.09556e-015 90 90   XYZ
    dof ry
    limits (-180.0 0.0)
 end
  begin
     id 21 
     name lhand
     direction 1 -4.49072e-011 -2.07528e-026   
     length 0.743834   
     axis 1.3242e-014 90 90   XYZ
    dof rx rz
    limits (-90.0 90.0)
           (-45.0 45.0)
  end
  begin
     id 22 
     name lfingers
     direction 1 -4.48909e-011 -4.15056e-026   
     length 0.599698   
     axis 2.64841e-014 90 90   XYZ
    dof rx
    limits (0.0 90.0)
  end
  begin
     id 23
     name lthumb
     direction 0.707107 -6.35013e-011 0.707107   
     length 0.86105   
     axis -90 45 2.85299e-015   XYZ
    dof rx rz
    limits (-45.0 45.0)
           (-45.0 45.0)
  end
  begin
     id 24 
     name rclavicle
     direction -0.835208 0.500237 -0.228452   
     length 3.2716  
     axis 0 0 0   XYZ 
    dof ry rz
    limits (-10.0 20.0)
           (-20.0 0.0)
  end
  begin
     id 25 
     name rhumerus
     direction -1 -4.48978e-011 -5.1953e-028  
     length 4.55919   
     axis 180 30 90   XYZ
    dof rx ry rz
    limits (-90.0 60.0)
           (-90.0 90.0)
           (-90.0 90.0)
  end
  begin
     id 26 
     name rradius
     direction -1 -4.48961e-011 -5.99546e-027   
     length 3.22748   
     axis 180 30 90   XYZ
    dof rx
    limits (-10.0 170.0)
  end
  begin
     id 27 
     name rwrist
     direction -1 -4.48986e-011 -1.03764e-026   
     length 1.61374   
     axis 9.09556e-015 -90 -90   XYZ
    dof ry
    limits (-180.0 0.0)
  end
  begin
     id 28
     name rhand
     direction -1 -4.4899e-011 -2.07528e-026   
     length 0.700882   
     axis 1.3242e-014 -90 -90   XYZ
    dof rx rz
    limits (-90.0 90.0)
           (-45.0 45.0)
  end
  begin
     id 29
     name rfingers
     direction -1 -4.48991e-011 -4.15056e-026   
     length 0.565069   
     axis 2.64841e-014 -90 -90   XYZ
    dof rx
    limits (0.0 90.0)
  end
  begin
     id 30
     name rthumb
     direction -0.707107 -6.34804e-011 0.707107   
     length 0.811329   
     axis -90 -45 -2.85299e-015   XYZ
    dof rx rz
    limits (-45.0 45.0)
           (-45.0 45.0)
  end
:hierarchy
  begin
    root lhipjoint rhipjoint lowerback
    lhipjoint lfemur
    lfemur ltibia
    ltibia lfoot
    lfoot ltoes
    rhipjoint rfemur
    rfemur rtibia
    rtibia rfoot
    rfoot rtoes
    lowerback upperback
    upperback thorax
    thorax lowerneck lclavicle rclavicle
    lowerneck upperneck
    upperneck head
    lclavicle lhumerus
    lhumerus lradius
    lradius lwrist
    lwrist lhand lthumb
    lhand lfingers
    rclavicle rhumerus
    rhumerus rradius
    rradius rwrist
    rwrist rhand rthumb
    rhand rfingers
  end

#!OML:ASF F:\VICON\USERDATA\INSTALL\SteveWalk\SteveWalk.ASF
:FULLY-SPECIFIED
:DEGREES
345
root 0.245748 16.0085 34.1819 18.7497 -6.22297 -1.14146
lowerback -17.2978 2.88175 1.19364
upperback -5.45532 3.53749 0.786978
thorax 3.86145 1.74662 0.870347
lowerneck -4.98784 -0.487867 -1.1345
upperneck 8.16377 -0.357635 -2.31057
head 3.51553 -0.307605 -0.575275
rclavicle -1.42876e-015 -1.11319e-014
rhumerus -14.0753 7.07025 -83.3619
rradius 57.4707
rwrist -20.1427
rhand -19.4432 -36.0058
rfingers 7.12502
rthumb 6.8773 -65.874
lclavicle -1.42876e-015 -1.11319e-014
lhumerus -68.3418 24.9987 48.8171
lradius 11.9718
lwrist -32.8362
lhand -16.4908 -16.8314
lfingers 7.12502
lthumb 9.7267 12.924
rfemur -3.06361 -6.25939 20.93
rtibia 20.2846
rfoot -20.1892 20.5077
rtoes -2.42231
lfemur -47.8412 9.6921 -25.5637
ltibia 9.16249
lfoot -7.74077 -0.403264
ltoes -6.4816
346
root 0.257812 15.9737 34.4156 18.6255 -6.1784 -0.96064
lowerback -17.0454 2.90238 1.02111
upperback -5.52126 3.60917 0.606256
thorax 3.65974 1.78272 0.775886
lowerneck -4.94481 -0.471682 -1.15322
upperneck 8.0719 -0.355177 -2.10244
head 3.47502 -0.297136 -0.502646
rclavicle -3.49861e-014 -5.1684e-015
rhumerus -13.9827 6.52028 -83.0386
rradius 57.6113
rwrist -18.9546
rhand -17.4007 -33.3205
rfingers 7.12502
rthumb 8.84865 -63.115
lclavicle -3.49861e-014 -5.1684e-015
lhumerus -69.5433 24.9917 46.9737
lradius 11.7343
lwrist -34.4142
lhand -16.6747 -17.1179
lfingers 7.12502
lthumb 9.54925 12.6457
rfemur -2.08438 -5.94438 20.4656
rtibia 20.2314
rfoot -20.8077 19.9226
rtoes -7.78877
lfemur -48.1612 10.1492 -26.6417
ltibia 9.83179
lfoot -8.31265 -1.92728
ltoes -11.0335
347
root 0.261477 15.9248 34.6489 18.6941 -6.04214 -1.23858
lowerback -17.006 2.9423 1.12697
upperback -5.5744 3.64461 0.632782
thorax 3.58707 1.80053 0.74744
lowerneck -4.92812 -0.554221 -1.25869
upperneck 7.92816 -0.47615 -1.91901
head 3.42142 -0.351257 -0.428487
rclavicle 1.9161e-014 1.19271e-015
rhumerus -13.9507 6.54561 -82.8129
rradius 58.1494
rwrist -19.3162
rhand -17.7999 -32.8825
rfingers 7.12502
rthumb 8.46343 -62.6929
lclavicle 1.9161e-014 1.19271e-015
lhumerus -71.4454 25.8719 43.112
lradius 11.0338
lwrist -38.7451
lhand -17.7638 -18.6375
lfingers 7.12502
lthumb 8.49826 11.1715
rfemur -1.67907 -5.28344 20.6141
rtibia 20.8154
rfoot -20.9181 19.522
rtoes -10.4413
lfemur -48.6878 10.6547 -27.2796
ltibia 10.2712
lfoot -8.61948 -2.86342
ltoes -23.6819
348
root 0.252911 15.882 34.8879 18.8461 -6.18994 -1.31714
lowerback -17.2564 2.96186 0.770517
upperback -5.57991 3.72414 0.642932
thorax 3.69027 1.84046 0.987289
lowerneck -4.99002 -0.670662 -1.31889
upperneck 7.84641 -0.641732 -1.7528
head 3.40485 -0.427936 -0.370819
rclavicle -5.87347e-015 -1.39149e-014
rhumerus -13.8989 6.07826 -82.5159
rradius 58.6962
rwrist -16.9115
rhand -14.7307 -34.5755
rfingers 7.12502
rthumb 11.4245 -64.2442
lclavicle -5.87347e-015 -1.39149e-014
lhumerus -72.5012 26.3914 40.9244
lradius 11.0061
lwrist -39.8388
lhand -16.1485 -17.0353
lfingers 7.12502
lthumb 10.0569 12.7044
rfemur -1.41669 -4.09159 20.6051
rtibia 21.5274
rfoot -20.0261 19.0378
rtoes -11.9257
lfemur -48.3777 7.9554 -24.5663
ltibia 11.4727
lfoot -8.09815 -0.545745
ltoes -24.2279
349
root 0.238757 15.8435 35.1477 18.7121 -6.67074 -0.865006
lowerback -17.4684 2.95549 -0.267223
upperback -5.55126 3.894 0.523559
thorax 3.77105 1.92563 1.49098
lowerneck -5.15923 -0.830338 -1.34792
upperneck 8.06266 -0.857046 -1.62499
head 3.51296 -0.533192 -0.336113
rclavicle -1.1486e-014 6.95746e-015
rhumerus -14.3524 6.44215 -82.3693
rradius 59.3687
rwrist -16.8805
rhand -15.2734 -33.7101
rfingers 7.12502
rthumb 10.9011 -63.4071
lclavicle -1.1486e-014 6.95746e-015
lhumerus -74.3813 27.1069 37.1236
lradius 10.6984
lwrist -43.2365
lhand -15.9446 -17.1593
lfingers 7.12502
lthumb 10.2536 12.5707
rfemur -1.08305 -2.7258 19.9536
rtibia 22.7728
rfoot -18.9996 18.5736
rtoes -12.4468
lfemur -47.6587 6.28066 -23.5548
ltibia 12.4378
lfoot -7.82587 1.48371
ltoes -27.7857
350
root 0.296147 15.7983 35.4352 18.6646 -5.26675 -0.819847
lowerback -17.7882 2.63924 0.346979
upperback -5.65667 3.37747 0.420539
thorax 3.88154 1.66775 0.945893
lowerneck -4.9249 -0.861005 -1.32636
upperneck 8.03946 -0.914536 -1.51702
head 3.4595 -0.555436 -0.305491
rclavicle -3.64024e-015 -3.18055e-015
rhumerus -15.3605 7.28145 -82.4375
rradius 60.2938
rwrist -19.2693
rhand -18.842 -32.0537
rfingers 7.12502
rthumb 7.45768 -61.9022
lclavicle -3.64024e-015 -3.18055e-015
lhumerus -74.7712 26.7353 36.8391
lradius 9.85442
lwrist -44.5347
lhand -17.8 -18.2884
lfingers 7.12502
lthumb 8.46336 11.522
rfemur -0.281064 -4.61081 19.6291
rtibia 23.6912
rfoot -17.4125 20.553
rtoes -8.38651
lfemur -47.8301 4.95652 -23.771
ltibia 14.7326
lfoot -9.00346 0.443848
ltoes -18.5164
351
root 0.295526 15.771 35.6453 17.8928 -5.65993 0.843917
lowerback -16.9943 2.43425 -1.71452
upperback -5.40917 3.48286 -0.0814059
thorax 3.63343 1.7249 1.56616
lowerneck -5.15839 -0.981418 -1.21659
upperneck 7.85237 -1.09239 -1.41459
head 3.43922 -0.635315 -0.29961
rclavicle 5.15722e-014 1.68967e-014
rhumerus -15.6142 6.77043 -82.2533
rradius 61.1557
rwrist -18.4861
rhand -18.043 -33.2501
rfingers 7.12502
rthumb 8.22879 -63.0699
lclavicle 5.15722e-014 1.68967e-014
lhumerus -74.4306 26.9533 36.8871
lradius 9.45195
lwrist -44.6861
lhand -17.6611 -16.8556
lfingers 7.12502
lthumb 8.59737 12.9493
rfemur 0.606515 -3.67127 17.7229
rtibia 24.4841
rfoot -15.6201 20.1616
rtoes -9.41625
lfemur -47.5969 3.86991 -25.1148
ltibia 17.4015
lfoot -11.3069 0.569477
ltoes -3.50907
